<svg id="Layer_3" enable-background="new 0 0 64 64" height="512" viewBox="0 0 64 64" width="512" xmlns="http://www.w3.org/2000/svg"><path d="m54 27c4.962 0 9-4.037 9-9v-2c0-.553-.448-1-1-1h-10c-2.826 0-5.349 1.312-7 3.356v-5.356h7c3.86 0 7-3.141 7-7v-4c0-.553-.448-1-1-1h-8c-2.548 0-4.775 1.373-6 3.413-1.225-2.04-3.452-3.413-6-3.413h-8c-.552 0-1 .447-1 1v4c0 3.859 3.14 7 7 7h7v5.356c-1.651-2.044-4.174-3.356-7-3.356h-10c-.552 0-1 .447-1 1v2c0 4.963 4.038 9 9 9h9v2h-42v2h42v2h-31v2h31v9c0 2.442-1.763 4.473-4.081 4.907-.816-6.657-8.982-11.907-18.919-11.907-10.477 0-19 5.832-19 13s8.523 13 19 13c10.017 0 18.229-5.336 18.931-12.069 3.42-.458 6.069-3.388 6.069-6.931v-9h7v-2h-7v-2h18v-2h-18v-2zm-34 12c6.043 0 11.345 2.057 14.36 5.139-2.255 1.853-5.058 2.861-8.017 2.861h-22.684c2.025-4.61 8.576-8 16.341-8zm0 22c-7.765 0-14.316-3.39-16.341-8h22.684c2.958 0 5.762 1.008 8.017 2.861-3.015 3.082-8.317 5.139-14.36 5.139zm15.632-6.682c-2.613-2.149-5.861-3.318-9.289-3.318h-23.265c-.046-.33-.078-.662-.078-1s.032-.67.078-1h23.265c3.428 0 6.676-1.169 9.289-3.318.879 1.327 1.368 2.786 1.368 4.318s-.489 2.991-1.368 4.318zm16.368-37.318h7.322c-2.749 2.11-6.025 3.519-9.463 4.01l.283 1.98c3.966-.567 7.738-2.241 10.847-4.757-.126 3.751-3.208 6.767-6.989 6.767h-9v-1c0-3.859 3.14-7 7-7zm-2-14h7v3c0 2.757-2.243 5-5 5h-7v-3c0-2.757 2.243-5 5-5zm-19 3v-3h7c2.757 0 5 2.243 5 5v3h-7c-2.757 0-5-2.243-5-5zm-3.988 12.234c3.109 2.515 6.88 4.19 10.847 4.757l.283-1.98c-3.439-.491-6.714-1.9-9.463-4.01h7.321c3.86 0 7 3.141 7 7v1h-9c-3.781-.001-6.863-3.017-6.988-6.767z"/></svg>